<svg xmlns="http://www.w3.org/2000/svg" xmlns:xlink="http://www.w3.org/1999/xlink" viewBox="0 0 328.92 222.67"><defs><style>.cls-1,.cls-2,.cls-3{fill:#240e18;}.cls-1,.cls-3,.cls-4{stroke:#240e18;}.cls-1,.cls-3,.cls-4,.cls-5,.cls-7,.cls-8{stroke-miterlimit:10;}.cls-1,.cls-5{stroke-width:7px;}.cls-3,.cls-7{stroke-width:8px;}.cls-4,.cls-8{fill:none;stroke-linecap:round;stroke-width:6px;}.cls-5,.cls-7,.cls-8{stroke:#341111;}.cls-5{fill:url(#linear-gradient);}.cls-6{fill:#341111;}.cls-7{fill:url(#linear-gradient-2);}</style><linearGradient id="linear-gradient" x1="232.63" y1="201.22" x2="99.34" y2="-20.1" gradientTransform="translate(323.61 31.48) rotate(127.76)" gradientUnits="userSpaceOnUse"><stop offset="0" stop-color="#92278f"/><stop offset="0.11" stop-color="#a3288b"/><stop offset="0.34" stop-color="#c42984"/><stop offset="0.57" stop-color="#db297f"/><stop offset="0.78" stop-color="#e92a7c"/><stop offset="0.97" stop-color="#ee2a7b"/></linearGradient><linearGradient id="linear-gradient-2" x1="265.29" y1="225.92" x2="208.51" y2="140.34" gradientTransform="translate(323.61 31.48) rotate(127.76)" gradientUnits="userSpaceOnUse"><stop offset="0.24" stop-color="#92278f"/><stop offset="1" stop-color="#ee2a7b"/></linearGradient></defs><g id="Layer_2" data-name="Layer 2"><g id="Layer_1-2" data-name="Layer 1"><path class="cls-1" d="M313.51,108.39s26.74-23.27.08-48.15c-9.12-8.52-26.84-4.48-35.78-3.61-15.07,1.47-33.68.43-60.48-3-4.78-.61-10.76-4.18-16.72-9.59,0,0-19-19.32-43.53-28.25s-64.89,10.79-72,15.1-29.48,22.72-37,32.47a80.6,80.6,0,0,0-13.8,31.21c-2.29,12.09-3.8,41.77-2.18,49,2,9.06,4.4,24.22,17.14,36.63,0,0,23.63,20.45,35.2,25.95C97.68,212.48,120.9,217,134,218.53c10.34,1.19,26.5,1.5,42.67-6s19.29-14,22.22-20.9c1.65-3.87,4-13.56,2.5-16.63,0,0,11.56-2.62,20.54-15.93s9.25-17.3,10.31-24.44c.59-4,1.54-11.72-2.5-19a61.43,61.43,0,0,1,7.3-1.94c15.22-1.52,45.66,2.81,61.17,1.2A30.62,30.62,0,0,0,313.51,108.39Z"/><path class="cls-2" d="M215.25,56.9c-3.86-.63-7.7-1.31-11.55-2l-11.54-2.06q-11.53-2.09-23-4.27l-11.52-2.2c-3.83-.75-7.68-1.44-11.5-2.26-7.64-1.71-15.25-3.54-22.62-6.74,8-.53,15.8.32,23.57,1.3,3.87.51,7.72,1.16,11.59,1.75l11.58,1.82c7.72,1.2,15.43,2.48,23.14,3.76l11.56,2c3.85.65,7.7,1.31,11.54,2Z"/><path class="cls-2" d="M233.24,119.46c-4.33,0-8.83,0-13.24.12l-6.65.22c-2.21.13-4.44.2-6.64.39s-4.4.39-6.6.59-4.39.5-6.54.91c-1.09.17-2.19.33-3.25.6s-2.17.4-3.21.72-2.12.57-3.17.9-2,.79-3.09,1.17L180,123.8a40.48,40.48,0,0,1,12.4-6.47,86.8,86.8,0,0,1,13.45-3.46A137.85,137.85,0,0,1,219.57,112a134.61,134.61,0,0,1,13.82-.55Z"/><path class="cls-2" d="M204.27,178.36c-1.1,0-2.43-.05-3.67,0s-2.53.07-3.8.15c-2.55.14-5.1.44-7.63.82a66.22,66.22,0,0,0-7.57,1.61l-1.87.53-1.85.63c-1.25.37-2.43.93-3.67,1.39l-.64-1.09a48.5,48.5,0,0,1,6.9-4.33A58,58,0,0,1,188,174.8a69.26,69.26,0,0,1,7.94-2.26c1.35-.27,2.71-.53,4.08-.74s2.71-.36,4.26-.44Z"/><path class="cls-3" d="M48.82,62.1S24.49,54,14.53,76.9,4,126.21,4,126.21s1.36,46.29,25.72,46.48c8.54.07,10.66-1.92,10.66-1.92s-8.91-22.48-8.53-38.56S32.5,82.49,48.82,62.1Z"/><path class="cls-4" d="M91,97.3S66.59,103.11,53.3,100"/><path class="cls-4" d="M112,129.57s-44.18-.49-57.46-3.56"/><path class="cls-4" d="M96.53,158.52s-26.27-3.79-40.43-10.85"/><path class="cls-5" d="M313.51,98.39s26.74-23.27.08-48.15c-9.12-8.52-26.84-4.48-35.78-3.61-15.07,1.47-33.68.43-60.48-3-4.78-.61-10.76-4.18-16.72-9.59,0,0-19-19.32-43.53-28.25s-64.89,10.79-72,15.1-29.48,22.72-37,32.47a80.6,80.6,0,0,0-13.8,31.21c-2.29,12.09-3.8,41.77-2.18,49,2,9.06,4.4,24.22,17.14,36.63,0,0,23.63,20.45,35.2,25.95C97.68,202.48,120.9,207,134,208.53c10.34,1.19,26.5,1.5,42.67-6s19.29-14,22.22-20.9c1.65-3.87,4-13.56,2.5-16.63,0,0,11.56-2.62,20.54-15.93s9.25-17.3,10.31-24.44c.59-4,1.54-11.72-2.5-19a61.43,61.43,0,0,1,7.3-1.94c15.22-1.52,45.66,2.81,61.17,1.2A30.62,30.62,0,0,0,313.51,98.39Z"/><path class="cls-6" d="M215.25,46.9c-3.86-.63-7.7-1.31-11.55-2l-11.54-2.06q-11.53-2.09-23-4.27l-11.52-2.2c-3.83-.75-7.68-1.44-11.5-2.26-7.64-1.71-15.25-3.54-22.62-6.74,8-.53,15.8.32,23.57,1.3,3.87.51,7.72,1.16,11.59,1.75l11.58,1.82c7.72,1.2,15.43,2.48,23.14,3.76l11.56,2c3.85.65,7.7,1.31,11.54,2Z"/><path class="cls-6" d="M233.24,109.46c-4.33,0-8.83,0-13.24.12l-6.65.22c-2.21.13-4.44.2-6.64.39s-4.4.39-6.6.59-4.39.5-6.54.91c-1.09.17-2.19.33-3.25.6s-2.17.4-3.21.72-2.12.57-3.17.9-2,.79-3.09,1.17L180,113.8a40.48,40.48,0,0,1,12.4-6.47,86.8,86.8,0,0,1,13.45-3.46A137.85,137.85,0,0,1,219.57,102a134.61,134.61,0,0,1,13.82-.55Z"/><path class="cls-6" d="M204.27,168.36c-1.1,0-2.43-.05-3.67,0s-2.53.07-3.8.15c-2.55.14-5.1.44-7.63.82a66.22,66.22,0,0,0-7.57,1.61l-1.87.53-1.85.63c-1.25.37-2.43.93-3.67,1.39l-.64-1.09a48.5,48.5,0,0,1,6.9-4.33A58,58,0,0,1,188,164.8a69.26,69.26,0,0,1,7.94-2.26c1.35-.27,2.71-.53,4.08-.74s2.71-.36,4.26-.44Z"/><path class="cls-7" d="M48.82,52.1S24.49,44,14.53,66.9,4,116.21,4,116.21s1.36,46.29,25.72,46.48c8.54.07,10.66-1.92,10.66-1.92s-8.91-22.48-8.53-38.56S32.5,72.49,48.82,52.1Z"/><path class="cls-8" d="M91,87.3S66.59,93.11,53.3,90"/><path class="cls-8" d="M112,119.57s-44.18-.49-57.46-3.56"/><path class="cls-8" d="M96.53,148.52s-26.27-3.79-40.43-10.85"/></g></g></svg>